<?xml version="1.0" standalone="no"?>
<!DOCTYPE svg PUBLIC "-//W3C//DTD SVG 20010904//EN"
 "http://www.w3.org/TR/2001/REC-SVG-20010904/DTD/svg10.dtd">
<svg version="1.0" xmlns="http://www.w3.org/2000/svg"
 width="1280.000000pt" height="1280.000000pt" viewBox="0 0 1280.000000 1280.000000"
 preserveAspectRatio="xMidYMid meet">
<metadata>
Created by potrace 1.15, written by Peter Selinger 2001-2017
</metadata>
<g transform="translate(0.000000,1280.000000) scale(0.100000,-0.100000)"
fill="#ffffff" stroke="none">
<path d="M7254 10926 c-16 -12 -19 -26 -18 -88 1 -79 9 -123 56 -323 53 -223
41 -326 -47 -423 -29 -32 -35 -46 -29 -64 4 -13 111 -205 239 -428 246 -430
355 -623 355 -632 0 -3 -40 -16 -90 -28 -103 -26 -184 -70 -218 -120 -21 -31
-23 -43 -20 -115 8 -149 87 -260 278 -388 113 -76 204 -156 226 -199 26 -49
17 -105 -31 -208 -25 -52 -52 -127 -61 -165 -21 -86 -40 -112 -146 -202 -147
-125 -301 -212 -489 -278 -217 -76 -388 -104 -675 -112 -393 -11 -835 38
-1649 183 -478 84 -713 116 -825 112 -90 -4 -102 -7 -237 -65 -152 -66 -212
-81 -254 -64 -45 16 -96 69 -191 193 -144 189 -210 235 -325 225 -192 -15
-352 -208 -438 -527 -48 -182 -55 -354 -20 -537 20 -106 73 -201 198 -358 31
-38 69 -92 84 -120 27 -48 28 -55 27 -190 0 -77 -6 -175 -13 -219 -18 -109
-16 -287 3 -369 29 -122 73 -192 238 -380 150 -170 185 -265 135 -364 -41 -80
-134 -197 -283 -353 -223 -235 -302 -356 -344 -530 -22 -94 -25 -178 -10 -263
11 -55 10 -57 -34 -145 -102 -204 -176 -403 -222 -597 -37 -159 -44 -383 -16
-515 31 -150 38 -163 113 -190 35 -13 67 -28 71 -34 3 -5 42 -10 85 -9 67 0
88 4 147 32 38 18 87 44 108 58 l38 26 0 246 c0 250 8 364 35 526 51 302 164
549 316 689 34 31 63 55 66 53 2 -3 19 -1 38 3 32 7 33 6 39 -29 4 -20 9 -232
11 -471 5 -457 13 -584 47 -740 30 -144 37 -155 100 -175 29 -10 63 -24 74
-32 27 -17 154 -30 154 -16 0 6 17 14 38 18 65 12 120 51 131 93 28 111 21
250 -25 462 -47 217 -56 289 -51 400 9 186 10 188 222 395 201 197 160 143
522 696 107 164 197 262 260 283 67 23 154 20 268 -10 127 -33 214 -29 520 21
121 20 265 43 320 51 180 28 354 2 377 -56 18 -46 2 -114 -64 -270 -72 -170
-82 -202 -127 -400 -79 -351 -114 -663 -115 -1020 -1 -492 64 -766 217 -921
49 -50 152 -109 190 -109 9 0 17 -4 17 -10 0 -12 107 -14 114 -2 3 5 30 14 61
21 68 15 79 31 94 128 21 139 6 322 -45 538 -74 318 -77 340 -78 535 l-1 185
35 50 c19 28 87 106 152 173 65 68 131 142 147 165 16 23 74 169 131 327 113
317 189 487 244 547 48 54 133 79 234 70 76 -8 223 -55 292 -94 120 -69 276
-208 313 -280 49 -93 -12 -381 -128 -612 -76 -152 -131 -197 -300 -246 -50
-14 -109 -35 -132 -46 -132 -64 -200 -248 -158 -434 42 -190 125 -294 261
-330 32 -8 59 -17 62 -20 3 -3 11 0 18 6 8 6 21 9 29 5 9 -3 23 -2 33 3 9 5
49 24 87 42 100 48 236 185 341 345 138 209 287 522 429 899 180 481 206 635
140 832 -49 146 -122 240 -331 424 -124 109 -232 232 -271 306 l-28 52 43 44
c24 24 89 71 146 105 195 116 244 161 348 322 105 161 204 377 333 725 96 259
170 430 243 558 57 100 156 222 173 211 5 -3 9 0 9 6 0 6 5 8 10 5 6 -3 10 -1
10 5 0 6 5 8 10 5 6 -3 10 -1 10 6 0 7 3 10 6 7 3 -4 38 7 77 23 40 17 121 48
182 70 255 93 391 183 446 294 20 42 24 65 24 140 l0 90 -59 103 -59 102 -61
0 c-246 0 -458 79 -719 268 -73 53 -168 121 -211 153 -172 124 -265 170 -594
290 -341 126 -431 177 -492 282 -61 104 -30 208 125 416 123 165 154 240 155
371 0 84 -23 170 -52 193 -18 15 -32 18 -73 12 -140 -18 -214 -101 -283 -317
-17 -54 -42 -119 -56 -146 -22 -44 -95 -122 -114 -122 -14 0 -59 54 -83 100
-21 39 -24 58 -23 150 0 93 5 119 38 225 21 66 52 166 68 223 28 97 29 105 14
128 -9 13 -24 24 -34 24 -29 0 -119 58 -174 112 -30 29 -97 107 -150 173 -93
118 -96 120 -161 143 -77 26 -87 27 -113 8z"/>
</g>
</svg>
